<svg id="exchange-dollar-svgrepo-com" xmlns="http://www.w3.org/2000/svg" width="36.232" height="36.232" viewBox="0 0 36.232 36.232">
  <path id="Path_23" data-name="Path 23" d="M0,0H36.232V36.232H0Z" fill="none"/>
  <path id="Path_24" data-name="Path 24" d="M28.465,21.782A12.079,12.079,0,0,0,11.338,6.61L9.84,3.987A15.1,15.1,0,0,1,31.095,23.3l2.026,1.168-6.288,3.342L26.584,20.7l1.881,1.085ZM6.2,12.413A12.079,12.079,0,0,0,23.324,27.585l1.5,2.622A15.1,15.1,0,0,1,3.567,10.893L1.54,9.726,7.828,6.383,8.077,13.5,6.2,12.414Zm5.85,7.7h8.3a.755.755,0,0,0,0-1.51H14.312a3.774,3.774,0,0,1,0-7.548h1.51V9.549h3.019v1.51h3.774v3.019h-8.3a.755.755,0,1,0,0,1.51H20.35a3.774,3.774,0,0,1,0,7.548h-1.51v1.51H15.821v-1.51H12.047Z" transform="translate(0.785 1.019)" fill="#036"/>
</svg>
