<svg xmlns="http://www.w3.org/2000/svg" width="33.75" height="30" viewBox="0 0 33.75 30">
  <path id="plane-solid" d="M28.127,11.25h-6.7L15.273.472A.938.938,0,0,0,14.458,0H10.62a.937.937,0,0,0-.9,1.195L12.592,11.25H6.565L4.034,7.875a.938.938,0,0,0-.75-.375H.941A.937.937,0,0,0,.031,8.665L1.877,15,.031,21.335A.937.937,0,0,0,.941,22.5H3.284a.937.937,0,0,0,.75-.375L6.565,18.75h6.027L9.719,28.8a.938.938,0,0,0,.9,1.2h3.838a.938.938,0,0,0,.814-.472L21.431,18.75h6.7c2.071,0,5.625-1.679,5.625-3.75S30.2,11.25,28.127,11.25Z" transform="translate(-0.003)" fill="#036"/>
</svg>
