<svg xmlns="http://www.w3.org/2000/svg" width="31.541" height="31.656" viewBox="0 0 31.541 31.656">
  <path id="Shape" d="M12.309,27.35A4.229,4.229,0,0,1,20.2,25.221c3.216-1.421,4.421-3.65,4.421-7.887V12.711c0-6.151-3.464-10.4-8.847-10.4s-8.847,4.251-8.847,10.4V18.1A1.156,1.156,0,0,1,5.77,19.259H4.231A4.239,4.239,0,0,1,0,15.024V13.483A4.24,4.24,0,0,1,4.231,9.245h.735C6.132,3.742,10.118,0,15.771,0s9.638,3.742,10.8,9.245h.735a4.24,4.24,0,0,1,4.231,4.237v1.541a4.239,4.239,0,0,1-4.231,4.237h-.475a9.012,9.012,0,0,1-6.062,8.228,4.232,4.232,0,1,1-8.463-.137Zm2.308,0a1.923,1.923,0,1,0,1.923-1.926,1.925,1.925,0,0,0-1.923,1.926Zm12.309-10.4h.383a1.926,1.926,0,0,0,1.925-1.926V13.483a1.926,1.926,0,0,0-1.923-1.927h-.385ZM2.308,13.483v1.541a1.926,1.926,0,0,0,1.923,1.924h.385V11.556H4.231a1.926,1.926,0,0,0-1.923,1.927Z" fill="#036"/>
</svg>
